<?xml version="1.0" standalone="no"?><svg xmlns="http://www.w3.org/2000/svg" viewBox="0 0 1440 320"><path fill="#ffd720" fill-opacity="1" d="M0,96L24,122.7C48,149,96,203,144,208C192,213,240,171,288,181.3C336,192,384,256,432,256C480,256,528,192,576,170.7C624,149,672,171,720,181.3C768,192,816,192,864,186.7C912,181,960,171,1008,144C1056,117,1104,75,1152,85.3C1200,96,1248,160,1296,192C1344,224,1392,224,1416,224L1440,224L1440,320L1416,320C1392,320,1344,320,1296,320C1248,320,1200,320,1152,320C1104,320,1056,320,1008,320C960,320,912,320,864,320C816,320,768,320,720,320C672,320,624,320,576,320C528,320,480,320,432,320C384,320,336,320,288,320C240,320,192,320,144,320C96,320,48,320,24,320L0,320Z"></path></svg>